<svg width="25" height="25" viewBox="0 0 25 25" fill="none" xmlns="http://www.w3.org/2000/svg">
<path d="M13.5 0C8.65371 0 4.71094 3.94277 4.71094 8.78906C4.71094 10.4265 5.1645 12.0244 6.0229 13.4107L12.9997 24.6538C13.1333 24.8691 13.3688 25 13.622 25C13.624 25 13.6259 25 13.6278 25C13.8833 24.998 14.1192 24.8631 14.2504 24.6439L21.0494 13.292C21.8604 11.935 22.2891 10.3779 22.2891 8.78906C22.2891 3.94277 18.3463 0 13.5 0ZM19.7923 12.5399L13.6109 22.8606L7.26792 12.639C6.55342 11.4851 6.16602 10.1538 6.16602 8.78906C6.16602 4.75049 9.46143 1.45508 13.5 1.45508C17.5386 1.45508 20.8291 4.75049 20.8291 8.78906C20.8291 10.1133 20.4672 11.4105 19.7923 12.5399Z" fill="#F38A03"/>
<path d="M13.5 4.39453C11.0769 4.39453 9.10547 6.36592 9.10547 8.78906C9.10547 11.1967 11.0448 13.1836 13.5 13.1836C15.9855 13.1836 17.8945 11.1703 17.8945 8.78906C17.8945 6.36592 15.9231 4.39453 13.5 4.39453ZM13.5 11.7285C11.8761 11.7285 10.5605 10.4085 10.5605 8.78906C10.5605 7.17363 11.8846 5.84961 13.5 5.84961C15.1154 5.84961 16.4346 7.17363 16.4346 8.78906C16.4346 10.3849 15.1496 11.7285 13.5 11.7285Z" fill="#F38A03"/>
</svg>
