<svg width="25" height="19" viewBox="0 0 25 19" fill="none" xmlns="http://www.w3.org/2000/svg">
<path d="M21.9187 0H3.05302C1.36895 0 0 1.36895 0 3.05302V15.947C0 17.6311 1.36895 19 3.05302 19H21.9135C23.5976 19 24.9666 17.6311 24.9666 15.947V3.05818C24.9717 1.37412 23.6028 0 21.9187 0ZM23.5769 15.947C23.5769 16.8613 22.8331 17.6052 21.9187 17.6052H3.05302C2.13866 17.6052 1.39478 16.8613 1.39478 15.947V3.05818C1.39478 2.14383 2.13866 1.39995 3.05302 1.39995H21.9135C22.8279 1.39995 23.5718 2.14383 23.5718 3.05818V15.947H23.5769Z" fill="#F38A03"/>
<path d="M15.7454 9.33998L21.8514 3.86418C22.1356 3.60589 22.1614 3.16679 21.9031 2.8775C21.6448 2.59338 21.2057 2.56755 20.9164 2.82584L12.4961 10.3835L10.8533 8.91638C10.8482 8.91121 10.843 8.90605 10.843 8.90088C10.8068 8.86472 10.7707 8.83373 10.7294 8.80273L4.04475 2.82068C3.75546 2.56238 3.31637 2.58821 3.05807 2.8775C2.79978 3.16679 2.82561 3.60589 3.1149 3.86418L9.29325 9.38647L3.14073 15.1464C2.86177 15.4099 2.84627 15.849 3.10973 16.1331C3.24921 16.2777 3.43518 16.3552 3.62115 16.3552C3.79162 16.3552 3.9621 16.2932 4.09641 16.1692L10.3419 10.3267L12.0363 11.8403C12.1706 11.9591 12.3359 12.0159 12.5012 12.0159C12.6666 12.0159 12.837 11.9539 12.9662 11.8351L14.7071 10.275L20.9164 16.1744C21.0507 16.3035 21.2264 16.3655 21.3968 16.3655C21.5828 16.3655 21.7636 16.2932 21.9031 16.1486C22.1666 15.8696 22.1562 15.4254 21.8773 15.1619L15.7454 9.33998Z" fill="#F38A03"/>
</svg>
