<?xml version="1.0" encoding="UTF-8"?>
<svg xmlns="http://www.w3.org/2000/svg" xmlns:xlink="http://www.w3.org/1999/xlink" width="12pt" height="12pt" viewBox="0 0 12 12" version="1.1">
<g id="surface9677666">
<path style=" stroke:none;fill-rule:nonzero;fill:rgb(25.098039%,72.54902%,48.235294%);fill-opacity:1;" d="M 10.066406 2.070312 C 9.90625 2.074219 9.757812 2.160156 9.675781 2.296875 L 5.160156 9.203125 L 2.234375 6.675781 C 2.109375 6.542969 1.921875 6.496094 1.746094 6.550781 C 1.574219 6.605469 1.445312 6.75 1.417969 6.929688 C 1.386719 7.105469 1.457031 7.289062 1.605469 7.394531 L 4.949219 10.289062 C 5.054688 10.378906 5.195312 10.417969 5.328125 10.398438 C 5.464844 10.378906 5.585938 10.300781 5.664062 10.183594 L 10.484375 2.820312 C 10.589844 2.667969 10.597656 2.472656 10.507812 2.316406 C 10.417969 2.15625 10.246094 2.0625 10.066406 2.070312 Z M 10.066406 2.070312 "/>
</g>
</svg>
