<svg width="65" height="65" viewBox="0 0 65 65" fill="none" xmlns="http://www.w3.org/2000/svg">
<g clip-path="url(#clip0)">
<path d="M7.15982 19.288C6.92382 19.0519 6.59628 18.916 6.26239 18.916C5.9285 18.916 5.60096 19.0517 5.36483 19.288C5.1287 19.5242 4.99286 19.8517 4.99286 20.1855C4.99286 20.5194 5.12857 20.847 5.36483 21.083C5.60096 21.3191 5.9285 21.4551 6.26239 21.4551C6.59628 21.4551 6.92382 21.3192 7.15982 21.083C7.39595 20.847 7.53192 20.5194 7.53192 20.1855C7.53192 19.8517 7.39595 19.5241 7.15982 19.288Z" fill="#ED1260"/>
<path d="M17.8683 4.95117H12.9701C8.57141 4.95117 4.99298 8.52973 4.99298 12.9281V15.6999C4.99298 16.4009 5.56135 16.9694 6.26251 16.9694C6.96355 16.9694 7.53204 16.4009 7.53204 15.6999V12.9281C7.53204 9.92964 9.97145 7.49023 12.9701 7.49023H17.8683C18.5693 7.49023 19.1378 6.92174 19.1378 6.2207C19.1378 5.51967 18.5693 4.95117 17.8683 4.95117Z" fill="#ED1260"/>
<path d="M53.342 6.85547H40.1401C39.5644 5.56372 38.7496 4.37747 37.7127 3.35524C35.518 1.19158 32.5925 0 29.4752 0H11.6597C5.23119 0 0.000976562 5.23009 0.000976562 11.6587V29.2386C0.000976562 34.282 1.89067 39.0951 5.32196 42.7909L6.91358 44.5056C6.71439 44.9492 6.60254 45.4401 6.60254 45.957V54.5901C6.60254 56.5499 8.19707 58.1445 10.1571 58.1445H30.4695V61.4454C30.4695 63.4053 32.0641 65 34.024 65H54.8446C56.8045 65 58.3992 63.4053 58.3992 61.4454V52.8124C58.3992 52.2954 58.2873 51.8045 58.088 51.3609L59.6796 49.6463C63.111 45.9504 65.0007 41.1374 65.0007 36.0939V18.5142C65.0007 12.0856 59.7705 6.85547 53.342 6.85547ZM7.18284 41.0634C4.18891 37.8385 2.54004 33.6391 2.54004 29.2386V11.6587C2.54004 6.63013 6.6311 2.53906 11.6597 2.53906H29.4751C34.5037 2.53906 38.5947 6.58252 38.5947 11.5524V14.9805H38.5942C34.9543 14.9805 31.9932 17.9417 31.9932 21.5815V30.412C31.9932 31.113 32.5617 31.6815 33.2627 31.6815C33.9637 31.6815 34.5322 31.113 34.5322 30.412V21.5815C34.5322 19.3417 36.3545 17.5195 38.5942 17.5195C40.8339 17.5195 42.6562 19.3418 42.6562 21.5815V26.3858C42.6562 30.9079 40.8952 35.1594 37.6976 38.357L33.6043 42.4502C33.4955 42.4199 33.3811 42.4023 33.2627 42.4023H30.9777H10.1571H8.42584L7.18284 41.0634ZM31.9932 54.59C31.9932 55.15 31.5377 55.6055 30.9777 55.6055H10.1571C9.59711 55.6055 9.1416 55.15 9.1416 54.59V53.0664H20.5674C21.2684 53.0664 21.8369 52.4979 21.8369 51.7969C21.8369 51.0958 21.2684 50.5273 20.5674 50.5273H9.1416V45.9569C9.1416 45.3969 9.59711 44.9414 10.157 44.9414H30.9777C31.5377 44.9414 31.9932 45.3969 31.9932 45.9569V54.59ZM55.8601 57.3828H48.7507C48.0497 57.3828 47.4812 57.9513 47.4812 58.6523C47.4812 59.3534 48.0497 59.9219 48.7507 59.9219H55.8601V61.4454C55.8601 62.0054 55.4046 62.4609 54.8446 62.4609H34.024C33.464 62.4609 33.0085 62.0054 33.0085 61.4454V57.5048C33.9288 56.8618 34.5324 55.7953 34.5324 54.59V51.7969H45.4499H54.8446C55.4046 51.7969 55.8601 52.2524 55.8601 52.8124V57.3828ZM62.4618 36.094C62.4617 40.4946 60.8129 44.694 57.8189 47.919L56.5759 49.2578H54.8446H45.4499H34.5324V45.9569C34.5324 45.6958 34.5033 45.4413 34.4496 45.1961L39.4933 40.1524C43.1705 36.4752 45.1955 31.5861 45.1955 26.3858V21.5815C45.1955 18.8412 43.5168 16.4861 41.134 15.4892V11.5524C41.134 10.8195 41.0642 10.0982 40.9323 9.39453H53.3421C58.3707 9.39453 62.4618 13.4856 62.4618 18.5142V36.094Z" fill="#ED1260"/>
<path d="M44.4422 57.7548C44.2061 57.5185 43.8786 57.3828 43.5448 57.3828C43.2109 57.3828 42.8834 57.5185 42.6472 57.7548C42.4111 57.991 42.2753 58.3185 42.2753 58.6523C42.2753 58.9862 42.411 59.3138 42.6472 59.5498C42.8834 59.7859 43.2109 59.9219 43.5448 59.9219C43.8787 59.9219 44.2062 59.786 44.4422 59.5498C44.6784 59.3138 44.8143 58.9862 44.8143 58.6523C44.8143 58.3185 44.6785 57.9909 44.4422 57.7548Z" fill="#ED1260"/>
<path d="M52.0298 11.8066H48.7497C48.0487 11.8066 47.4802 12.3751 47.4802 13.0762C47.4802 13.7772 48.0487 14.3457 48.7497 14.3457H52.0298C55.0283 14.3457 57.4678 16.7851 57.4678 19.7836V27.041C57.4678 27.7421 58.0363 28.3105 58.7374 28.3105C59.4384 28.3105 60.0069 27.7421 60.0069 27.041V19.7836C60.0069 15.3852 56.4285 11.8066 52.0298 11.8066Z" fill="#ED1260"/>
</g>
<defs>
<clipPath id="clip0">
<rect width="65" height="65" fill="white"/>
</clipPath>
</defs>
</svg>
