<svg width="65" height="65" viewBox="0 0 65 65" fill="none" xmlns="http://www.w3.org/2000/svg">
<g clip-path="url(#clip0)">
<path d="M58.6521 32.3701H55.1436C51.6434 32.3701 48.7957 35.2178 48.7957 38.718V39.0906H47.395C46.6938 39.0906 46.1255 39.6591 46.1255 40.3601C46.1255 41.0612 46.6938 41.6297 47.395 41.6297H48.7957V48.0512H37.4457V41.6297H38.4234C39.1245 41.6297 39.6929 41.0612 39.6929 40.3601C39.6929 39.6591 39.1245 39.0906 38.4234 39.0906H37.4457V38.718C37.4457 35.2178 34.598 32.3701 31.0978 32.3701H27.5893C27.2877 32.3701 26.9914 32.3927 26.7008 32.4336L29.7355 29.3987L29.9989 29.6622C31.1978 30.861 32.792 31.5215 34.4876 31.5215C36.1831 31.5215 37.7773 30.8612 38.9762 29.6622L41.4572 27.1813C43.9321 24.7062 43.9321 20.679 41.4572 18.2039L40.7039 17.4507C40.2082 16.9551 39.4043 16.9549 38.9084 17.4508C38.4127 17.9466 38.4127 18.7504 38.9084 19.2463L39.6617 19.9995C41.1468 21.4845 41.1468 23.9008 39.6617 25.3859L37.1807 27.8668C36.4614 28.5862 35.5048 28.9823 34.4876 28.9823C33.4702 28.9823 32.5137 28.5862 31.7944 27.8668L27.4649 23.5373L24.2968 20.3692C24.2967 20.3691 24.2964 20.3688 24.2963 20.3687L23.1355 19.2081C22.4162 18.4888 22.02 17.5323 22.02 16.5149C22.02 15.4976 22.4162 14.541 23.1355 13.8217L25.6165 11.3408C27.1014 9.85596 29.5177 9.85571 31.0028 11.3408L32.0737 12.4117C32.5694 12.9073 33.3733 12.9073 33.8693 12.4117C34.3651 11.9159 34.3651 11.112 33.8693 10.616L32.7985 9.54518C30.3232 7.07023 26.2962 7.07023 23.8212 9.54518L21.3403 12.0261C20.1414 13.225 19.4809 14.8192 19.4809 16.5148C19.4809 18.2105 20.1412 19.8045 21.3403 21.0035L21.6037 21.2669L13.5781 29.2926L13.3147 29.0292C12.1158 27.8304 10.5216 27.1698 8.82603 27.1698C7.13032 27.1698 5.53629 27.8301 4.33735 29.0292L1.85643 31.5101C-0.618647 33.9852 -0.618647 38.0124 1.85643 40.4875L10.5151 49.1462C11.7527 50.3836 13.3783 51.0025 15.0038 51.0025C16.6295 51.0025 18.255 50.3837 19.4926 49.1462L21.2415 47.3971V50.963C21.2415 54.4632 24.0892 57.3109 27.5894 57.3109H31.0979C34.5981 57.3109 37.4458 54.4632 37.4458 50.963V50.5903H48.7958V50.963C48.7958 54.4632 51.6435 57.3109 55.1437 57.3109H58.6522C62.1524 57.3109 65.0001 54.4632 65.0001 50.963V38.7179C65 35.2176 62.1524 32.3701 58.6521 32.3701ZM21.2413 42.7895C21.1181 43.5516 20.7642 44.2834 20.1778 44.8699L17.6969 47.3508C16.212 48.8358 13.7955 48.8359 12.3105 47.3508L3.6518 38.6921C2.1667 37.2071 2.1667 34.7908 3.6518 33.3057L6.13272 30.8248C6.85203 30.1054 7.80863 29.7093 8.8259 29.7093C9.84318 29.7093 10.7998 30.1054 11.5191 30.8248L15.8484 35.1542L19.0166 38.3223L19.0167 38.3224L20.1778 39.4835C20.7642 40.0699 21.118 40.8017 21.2413 41.564V42.7895ZM19.9142 35.629L15.3735 31.0881L23.3991 23.0624L27.94 27.6032L19.9142 35.629ZM34.9065 40.3603V49.321V50.9633C34.9065 53.0634 33.1978 54.772 31.0978 54.772H27.5893C25.4891 54.772 23.7806 53.0633 23.7806 50.9633V42.9528C23.8436 42.4373 23.8436 41.9161 23.7806 41.4005V38.718C23.7806 36.6178 25.4893 34.9093 27.5893 34.9093H31.0978C33.198 34.9093 34.9065 36.6179 34.9065 38.718V40.3603ZM62.4608 50.9633C62.4608 53.0634 60.7521 54.772 58.6521 54.772H55.1436C53.0434 54.772 51.3349 53.0633 51.3349 50.9633V49.3209V40.3601V38.7179C51.3349 36.6177 53.0435 34.9091 55.1436 34.9091H58.6521C60.7522 34.9091 62.4608 36.6178 62.4608 38.7179V50.9633Z" fill="#ED1260"/>
<path d="M43.8485 39.4622C43.6124 39.2261 43.2861 39.0901 42.9509 39.0901C42.617 39.0901 42.2895 39.2261 42.0534 39.4622C41.8172 39.6982 41.6814 40.0257 41.6814 40.3596C41.6814 40.6949 41.8172 41.021 42.0534 41.2572C42.2908 41.4946 42.617 41.6304 42.9509 41.6304C43.2861 41.6304 43.6124 41.4946 43.8485 41.2572C44.0846 41.021 44.2205 40.6948 44.2205 40.3596C44.2205 40.0257 44.0846 39.6982 43.8485 39.4622Z" fill="#ED1260"/>
<path d="M37.4983 14.2455C37.2621 14.0081 36.9346 13.8734 36.6007 13.8734C36.2656 13.8734 35.9393 14.0081 35.7032 14.2455C35.4658 14.4815 35.3312 14.8091 35.3312 15.1429C35.3312 15.477 35.4658 15.8031 35.7032 16.0405C35.9393 16.2768 36.2656 16.4125 36.6007 16.4125C36.9346 16.4125 37.2621 16.2768 37.4983 16.0405C37.7344 15.8031 37.8702 15.477 37.8702 15.1429C37.8704 14.8091 37.7345 14.4815 37.4983 14.2455Z" fill="#ED1260"/>
<path d="M31.8636 49.6937H26.8228C26.1216 49.6937 25.5532 50.2622 25.5532 50.9633C25.5532 51.6643 26.1216 52.2328 26.8228 52.2328H31.8636C32.5647 52.2328 33.1331 51.6643 33.1331 50.9633C33.1332 50.2623 32.5649 49.6937 31.8636 49.6937Z" fill="#ED1260"/>
<path d="M59.4181 49.6937H54.3774C53.6763 49.6937 53.1079 50.2622 53.1079 50.9633C53.1079 51.6643 53.6763 52.2328 54.3774 52.2328H59.4181C60.1193 52.2328 60.6876 51.6643 60.6876 50.9633C60.6878 50.2623 60.1193 49.6937 59.4181 49.6937Z" fill="#ED1260"/>
<path d="M18.4004 40.7016C17.9046 40.2059 17.1007 40.2059 16.6049 40.7016L13.0405 44.266C12.5448 44.7617 12.5448 45.5656 13.0405 46.0616C13.2885 46.3094 13.6133 46.4335 13.9382 46.4335C14.2631 46.4335 14.5881 46.3094 14.8359 46.0616L18.4002 42.4973C18.8961 42.0015 18.8961 41.1975 18.4004 40.7016Z" fill="#ED1260"/>
<path d="M38.307 20.7945C37.8112 20.2988 37.0073 20.2988 36.5115 20.7945L32.9471 24.3589C32.4514 24.8546 32.4514 25.6585 32.9471 26.1545C33.1951 26.4023 33.5199 26.5263 33.8448 26.5263C34.1697 26.5263 34.4947 26.4023 34.7425 26.1545L38.3068 22.5902C38.8027 22.0944 38.8027 21.2904 38.307 20.7945Z" fill="#ED1260"/>
</g>
<defs>
<clipPath id="clip0">
<rect width="65" height="65" fill="white"/>
</clipPath>
</defs>
</svg>
