<svg width="65" height="65" viewBox="0 0 65 65" fill="none" xmlns="http://www.w3.org/2000/svg">
<g clip-path="url(#clip0)">
<path d="M29.7147 46.1132C29.7724 46.716 30.2795 47.1673 30.873 47.1673C30.91 47.1673 30.9476 47.1656 30.9851 47.1619C31.6257 47.1007 32.0951 46.5319 32.0339 45.8915L28.5924 9.87635H49.1069L46.7312 34.7375C46.67 35.378 47.1395 35.9467 47.7799 36.0079C48.4216 36.0695 48.9892 35.5995 49.0503 34.9591L52.1683 2.32927C52.1996 2.00247 52.0915 1.67784 51.8707 1.43491C51.65 1.19214 51.3369 1.05359 51.0087 1.05359H26.6906C26.3624 1.05359 26.0494 1.19214 25.8285 1.43491C25.6078 1.67784 25.4997 2.00262 25.5309 2.32927L29.7147 46.1132ZM49.7276 3.38346L49.3298 7.54663H28.3699L27.9722 3.38346H49.7276Z" fill="#ED1260"/>
<path d="M62.7534 40.2157C61.2107 37.9424 59.1148 36.6905 56.8512 36.6905C55.3345 36.6905 53.8862 37.2621 52.6365 38.3166V35.964C52.6365 35.3207 52.1149 34.7991 51.4716 34.7991C50.8282 34.7991 50.3066 35.3207 50.3066 35.964V38.3166C49.0567 37.2621 47.6085 36.6905 46.0917 36.6905C43.8173 36.6905 41.7367 37.788 40.2333 39.7808C38.7691 41.7217 37.9626 44.4179 37.9626 47.3723C37.9626 47.8841 38.011 48.4428 38.106 49.0324C38.2085 49.6675 38.8062 50.0984 39.4418 49.9968C40.0769 49.8943 40.5087 49.2963 40.4062 48.661C40.3307 48.1938 40.2925 47.7603 40.2925 47.3723C40.2925 42.5328 42.7314 39.0203 46.0916 39.0203C47.7445 39.0203 49.3352 40.1634 50.4559 42.1565C50.6622 42.5234 51.0505 42.7505 51.4714 42.7505C51.8923 42.7505 52.2805 42.5234 52.4869 42.1565C53.6074 40.1634 55.1983 39.0203 56.8511 39.0203C60.0053 39.0203 62.6698 43.1998 62.6698 48.1471C62.6698 49.9137 61.8764 52.0078 60.3119 54.3711C59.8274 55.1027 59.2525 55.7723 58.6033 56.3616C58.1268 56.7938 58.091 57.5305 58.5233 58.0071C58.7532 58.2606 59.0691 58.3892 59.3864 58.3892C59.6656 58.3892 59.9458 58.2893 60.1688 58.0869C60.9616 57.3676 61.6633 56.5501 62.2545 55.657C64.0762 52.9057 64.9997 50.3789 64.9997 48.1467C64.9999 45.1673 64.202 42.3505 62.7534 40.2157Z" fill="#ED1260"/>
<path d="M54.5195 55.0561L27.4692 48.5109C25.2911 47.9839 22.9875 48.4171 21.1494 49.6995C19.8465 50.6086 18.8656 51.8853 18.3119 53.3443L12.7235 48.6206C12.2319 48.2052 11.4969 48.2669 11.0817 48.7582C10.6664 49.2496 10.728 49.9846 11.2193 50.4L15.2994 53.8486L1.27356 52.5351C0.632849 52.475 0.0651367 52.9457 0.00502604 53.5863C-0.0549293 54.2269 0.415705 54.7947 1.05626 54.8548L14.0015 56.0672L5.95614 59.3102C5.35954 59.5506 5.07063 60.2294 5.31123 60.8261C5.4942 61.2802 5.93082 61.5559 6.39198 61.5559C6.5369 61.5559 6.68446 61.5287 6.82705 61.4711L17.8559 57.0255C18.0421 58.619 18.7131 60.1339 19.8037 61.3483C21.2881 63.0016 23.408 63.9465 25.6282 63.9465C25.6474 63.9465 25.667 63.9465 25.6863 63.9463L53.5164 63.7394C55.7368 63.723 57.6033 62.0472 57.8582 59.8412C58.1131 57.6356 56.6778 55.5783 54.5195 55.0561ZM55.5439 59.5741C55.4238 60.6129 54.5448 61.4019 53.4994 61.4097L25.6692 61.6166C24.095 61.6296 22.5891 60.9631 21.5375 59.792C20.4858 58.6207 19.9863 57.0521 20.167 55.4883C20.3476 53.9246 21.1915 52.5111 22.4825 51.6104C23.4134 50.961 24.5142 50.6216 25.6296 50.6216C26.0609 50.6216 26.4946 50.6724 26.9214 50.7757L53.9717 57.3209C54.988 57.5665 55.6638 58.5354 55.5439 59.5741Z" fill="#ED1260"/>
<path d="M35.0977 14.7991C33.2992 14.7991 31.8361 16.2622 31.8361 18.0609C31.8361 19.8596 33.2992 21.3226 35.0977 21.3226C36.8962 21.3226 38.3595 19.8594 38.3595 18.0609C38.3595 16.2624 36.8962 14.7991 35.0977 14.7991ZM35.0977 18.9927C34.5839 18.9927 34.1659 18.5747 34.1659 18.0609C34.1659 17.5471 34.5839 17.1289 35.0977 17.1289C35.6115 17.1289 36.0297 17.5469 36.0297 18.0609C36.0297 18.5749 35.6115 18.9927 35.0977 18.9927Z" fill="#ED1260"/>
<path d="M40.6893 32.2725C42.7447 32.2725 44.417 30.6002 44.417 28.5448C44.417 27.9015 43.8954 27.3799 43.252 27.3799C42.6087 27.3799 42.0871 27.9015 42.0871 28.5448C42.0871 29.3155 41.4601 29.9426 40.6893 29.9426C39.9186 29.9426 39.2914 29.3155 39.2914 28.5448C39.2914 27.7741 39.9185 27.1469 40.6893 27.1469C41.3327 27.1469 41.8543 26.6253 41.8543 25.982C41.8543 25.3386 41.3327 24.817 40.6893 24.817C38.6339 24.817 36.9615 26.4892 36.9615 28.5448C36.9615 30.6001 38.6338 32.2725 40.6893 32.2725Z" fill="#ED1260"/>
</g>
<defs>
<clipPath id="clip0">
<rect width="65" height="65" fill="white"/>
</clipPath>
</defs>
</svg>
