<svg width="65" height="65" viewBox="0 0 65 65" fill="none" xmlns="http://www.w3.org/2000/svg">
<path d="M18.9449 41.7399C20.3703 41.7399 21.5259 40.5843 21.5259 39.1589C21.5259 37.7335 20.3703 36.578 18.9449 36.578C17.5195 36.578 16.364 37.7335 16.364 39.1589C16.364 40.5843 17.5195 41.7399 18.9449 41.7399Z" fill="#ED1260"/>
<path d="M46.0542 41.7399C47.4796 41.7399 48.6351 40.5843 48.6351 39.1589C48.6351 37.7335 47.4796 36.578 46.0542 36.578C44.6288 36.578 43.4733 37.7335 43.4733 39.1589C43.4733 40.5843 44.6288 41.7399 46.0542 41.7399Z" fill="#ED1260"/>
<path d="M65 38.0636C65 34.325 62.2901 31.2097 58.7317 30.573V29.445C58.7317 14.9806 46.9642 3.21313 32.5001 3.21313C18.0358 3.21313 6.26826 14.9806 6.26826 29.445V30.573C2.70991 31.2099 0 34.3252 0 38.0636C0 41.8344 2.7566 44.9717 6.36012 45.5706C6.86731 51.3501 9.51155 55.6192 14.2436 58.2759C18.4519 60.6385 24.4234 61.7868 32.5001 61.7868C40.5766 61.7868 46.5482 60.6383 50.7565 58.2759C55.4885 55.6192 58.1327 51.3503 58.6399 45.5706C62.2434 44.9718 65 41.8344 65 38.0636ZM2.68707 38.0636C2.68707 35.814 4.20392 33.9132 6.26809 33.3268V42.8004C4.20392 42.2141 2.68707 40.3133 2.68707 38.0636ZM56.0447 43.4562C56.0447 49.3568 53.8846 53.438 49.441 55.9327C45.6451 58.0639 40.1036 59.0998 32.5001 59.0998C24.8965 59.0998 19.3549 58.0639 15.5591 55.9327C11.1154 53.438 8.95533 49.3568 8.95533 43.4562V29.445C8.95533 18.8127 16.0399 9.80569 25.7357 6.89207C33.1223 6.98544 37.0562 12.3176 37.0562 16.1786C37.0562 19.1357 34.6504 21.5416 31.6931 21.5416C29.4756 21.5416 27.6714 19.7374 27.6714 17.5199C27.6714 15.8941 28.9941 14.5712 30.6201 14.5712C31.3621 14.5712 31.9637 13.9696 31.9637 13.2277C31.9637 12.4857 31.3621 11.8841 30.6201 11.8841C27.5126 11.8841 24.9844 14.4123 24.9844 17.5199C24.9844 21.2192 27.9939 24.2287 31.6931 24.2287C36.132 24.2287 39.7432 20.6174 39.7432 16.1786C39.7432 13.3899 38.3421 10.3896 35.9953 8.15264C35.0565 7.25784 33.9884 6.50563 32.8229 5.9044C45.657 6.07805 56.0447 16.5704 56.0447 29.445V43.4562ZM58.7317 42.8005V33.3269C60.7961 33.9134 62.3129 35.8142 62.3129 38.0637C62.3129 40.3133 60.7959 42.2141 58.7317 42.8005Z" fill="#ED1260"/>
<path d="M37.6961 42.8593C34.8312 45.7246 30.169 45.7246 27.3041 42.8593C26.7793 42.3347 25.9288 42.3347 25.404 42.8593C24.8793 43.384 24.8793 44.2348 25.404 44.7594C27.3603 46.7158 29.9304 47.694 32.5002 47.694C35.07 47.694 37.6399 46.7158 39.5964 44.7594C40.1211 44.2348 40.1211 43.384 39.5964 42.8593C39.0714 42.3347 38.221 42.3347 37.6961 42.8593Z" fill="#ED1260"/>
</svg>
