<svg width="76" height="76" viewBox="0 0 76 76" fill="none" xmlns="http://www.w3.org/2000/svg">
<mask id="path-1-outside-1" maskUnits="userSpaceOnUse" x="1.34924" y="23.9375" width="73" height="34" fill="black">
<rect fill="white" x="1.34924" y="23.9375" width="73" height="34"/>
<path d="M41.2658 53.1406C40.8589 53.6068 40.357 53.9805 39.7937 54.2365C39.2304 54.4925 38.6189 54.625 38.0001 54.625C37.3814 54.625 36.7698 54.4925 36.2066 54.2365C35.6433 53.9805 35.1414 53.6068 34.7345 53.1406C34.1059 52.42 33.3302 51.8424 32.4597 51.4466C31.5891 51.0508 30.6439 50.846 29.6877 50.846C28.7314 50.846 27.7862 51.0508 26.9156 51.4466C26.0451 51.8424 25.2694 52.42 24.6408 53.1406C24.2339 53.6068 23.732 53.9805 23.1687 54.2365C22.6055 54.4925 21.9939 54.625 21.3752 54.625C20.7564 54.625 20.1448 54.4925 19.5816 54.2365C19.0183 53.9805 18.5164 53.6068 18.1095 53.1406C17.4809 52.42 16.7052 51.8424 15.8347 51.4466C14.9641 51.0508 14.0189 50.846 13.0626 50.846C12.1064 50.846 11.1612 51.0508 10.2906 51.4466C9.42011 51.8424 8.64443 52.42 8.01577 53.1406C7.50101 53.7235 6.84004 54.1584 6.10108 54.4006C5.36211 54.6427 4.57191 54.6833 3.81202 54.5181C3.65608 54.4854 3.49521 54.4837 3.33861 54.5131C3.182 54.5425 3.03272 54.6025 2.8993 54.6896C2.62983 54.8655 2.44129 55.1413 2.37515 55.4563C2.30901 55.7712 2.37069 56.0995 2.54663 56.369C2.72256 56.6384 2.99833 56.827 3.31327 56.8931C4.48528 57.1549 5.70621 57.0957 6.84734 56.7216C7.98847 56.3475 9.00751 55.6724 9.79702 54.7675C10.2039 54.3013 10.7058 53.9277 11.2691 53.6716C11.8323 53.4156 12.4439 53.2831 13.0626 53.2831C13.6814 53.2831 14.293 53.4156 14.8562 53.6716C15.4195 53.9277 15.9214 54.3013 16.3283 54.7675C16.9569 55.4881 17.7326 56.0657 18.6031 56.4615C19.4737 56.8573 20.4189 57.0621 21.3752 57.0621C22.3314 57.0621 23.2766 56.8573 24.1472 56.4615C25.0177 56.0657 25.7934 55.4881 26.422 54.7675C26.8289 54.3013 27.3308 53.9277 27.8941 53.6716C28.4573 53.4156 29.0689 53.2831 29.6877 53.2831C30.3064 53.2831 30.918 53.4156 31.4812 53.6716C32.0445 53.9277 32.5464 54.3013 32.9533 54.7675C33.5819 55.4881 34.3576 56.0657 35.2281 56.4615C36.0987 56.8573 37.0439 57.0621 38.0001 57.0621C38.9564 57.0621 39.9016 56.8573 40.7722 56.4615C41.6427 56.0657 42.4184 55.4881 43.047 54.7675C43.4539 54.3013 43.9558 53.9277 44.5191 53.6716C45.0824 53.4156 45.6939 53.2831 46.3126 53.2831C46.9314 53.2831 47.5429 53.4156 48.1062 53.6716C48.6695 53.9277 49.1714 54.3013 49.5783 54.7675C50.2069 55.4881 50.9826 56.0657 51.8531 56.4615C52.7237 56.8573 53.6689 57.0621 54.6251 57.0621C55.5814 57.0621 56.5266 56.8573 57.3972 56.4615C58.2677 56.0657 59.0434 55.4881 59.672 54.7675C60.0789 54.3013 60.5808 53.9277 61.1441 53.6716C61.7074 53.4156 62.3189 53.2831 62.9376 53.2831C63.5564 53.2831 64.1679 53.4156 64.7312 53.6716C65.2945 53.9277 65.7964 54.3013 66.2033 54.7675C66.9928 55.6724 68.0118 56.3475 69.153 56.7216C70.2941 57.0957 71.515 57.1549 72.687 56.8931C73.002 56.827 73.2777 56.6384 73.4537 56.369C73.6296 56.0995 73.6913 55.7712 73.6252 55.4563C73.559 55.1413 73.3705 54.8655 73.101 54.6896C72.8315 54.5137 72.5032 54.452 72.1883 54.5181C71.4284 54.6833 70.6382 54.6427 69.8992 54.4006C69.1603 54.1584 68.4993 53.7235 67.9845 53.1406C67.5523 52.6524 67.0524 52.2286 66.5002 51.8819V29.6875C66.5002 29.0576 66.7504 28.4535 67.1958 28.0081C67.6412 27.5627 68.2453 27.3125 68.8752 27.3125C69.505 27.3125 70.1091 27.5627 70.5545 28.0081C70.9999 28.4535 71.2502 29.0576 71.2502 29.6875C71.2502 30.0024 71.3753 30.3045 71.598 30.5272C71.8207 30.7499 72.1227 30.875 72.4377 30.875C72.7526 30.875 73.0546 30.7499 73.2773 30.5272C73.5 30.3045 73.6252 30.0024 73.6252 29.6875C73.6252 28.4277 73.1247 27.2195 72.2339 26.3287C71.3431 25.4379 70.1349 24.9375 68.8752 24.9375C67.6154 24.9375 66.4072 25.4379 65.5164 26.3287C64.6256 27.2195 64.1251 28.4277 64.1251 29.6875V33.25H49.8751V29.6875C49.8751 29.0576 50.1254 28.4535 50.5708 28.0081C51.0162 27.5627 51.6203 27.3125 52.2501 27.3125C52.88 27.3125 53.4841 27.5627 53.9295 28.0081C54.3749 28.4535 54.6251 29.0576 54.6251 29.6875C54.6251 30.0024 54.7503 30.3045 54.973 30.5272C55.1957 30.7499 55.4977 30.875 55.8126 30.875C56.1276 30.875 56.4296 30.7499 56.6523 30.5272C56.875 30.3045 57.0001 30.0024 57.0001 29.6875C57.0001 28.4277 56.4997 27.2195 55.6089 26.3287C54.7181 25.4379 53.5099 24.9375 52.2501 24.9375C50.9904 24.9375 49.7822 25.4379 48.8914 26.3287C48.0006 27.2195 47.5001 28.4277 47.5001 29.6875V50.9675C47.1087 50.8921 46.7113 50.8524 46.3126 50.8487C45.3568 50.8499 44.4122 51.055 43.542 51.4502C42.6717 51.8454 41.8957 52.4217 41.2658 53.1406ZM49.8751 45.125H64.1251V47.5H49.8751V45.125ZM64.1251 35.625V38H53.4376C53.1227 38 52.8207 38.1251 52.598 38.3478C52.3753 38.5705 52.2501 38.8726 52.2501 39.1875C52.2501 39.5024 52.3753 39.8045 52.598 40.0272C52.8207 40.2499 53.1227 40.375 53.4376 40.375H64.1251V42.75H49.8751V35.625H64.1251ZM49.8751 49.875H64.1251V50.9675C63.7337 50.8921 63.3363 50.8524 62.9376 50.8487C61.9818 50.8499 61.0372 51.055 60.167 51.4502C59.2967 51.8454 58.5207 52.4217 57.8908 53.1406C57.4839 53.6068 56.982 53.9805 56.4187 54.2365C55.8554 54.4925 55.2439 54.625 54.6251 54.625C54.0064 54.625 53.3949 54.4925 52.8316 54.2365C52.2683 53.9805 51.7664 53.6068 51.3595 53.1406C50.9273 52.6524 50.4274 52.2286 49.8751 51.8819V49.875Z"/>
</mask>
<path d="M41.2658 53.1406C40.8589 53.6068 40.357 53.9805 39.7937 54.2365C39.2304 54.4925 38.6189 54.625 38.0001 54.625C37.3814 54.625 36.7698 54.4925 36.2066 54.2365C35.6433 53.9805 35.1414 53.6068 34.7345 53.1406C34.1059 52.42 33.3302 51.8424 32.4597 51.4466C31.5891 51.0508 30.6439 50.846 29.6877 50.846C28.7314 50.846 27.7862 51.0508 26.9156 51.4466C26.0451 51.8424 25.2694 52.42 24.6408 53.1406C24.2339 53.6068 23.732 53.9805 23.1687 54.2365C22.6055 54.4925 21.9939 54.625 21.3752 54.625C20.7564 54.625 20.1448 54.4925 19.5816 54.2365C19.0183 53.9805 18.5164 53.6068 18.1095 53.1406C17.4809 52.42 16.7052 51.8424 15.8347 51.4466C14.9641 51.0508 14.0189 50.846 13.0626 50.846C12.1064 50.846 11.1612 51.0508 10.2906 51.4466C9.42011 51.8424 8.64443 52.42 8.01577 53.1406C7.50101 53.7235 6.84004 54.1584 6.10108 54.4006C5.36211 54.6427 4.57191 54.6833 3.81202 54.5181C3.65608 54.4854 3.49521 54.4837 3.33861 54.5131C3.182 54.5425 3.03272 54.6025 2.8993 54.6896C2.62983 54.8655 2.44129 55.1413 2.37515 55.4563C2.30901 55.7712 2.37069 56.0995 2.54663 56.369C2.72256 56.6384 2.99833 56.827 3.31327 56.8931C4.48528 57.1549 5.70621 57.0957 6.84734 56.7216C7.98847 56.3475 9.00751 55.6724 9.79702 54.7675C10.2039 54.3013 10.7058 53.9277 11.2691 53.6716C11.8323 53.4156 12.4439 53.2831 13.0626 53.2831C13.6814 53.2831 14.293 53.4156 14.8562 53.6716C15.4195 53.9277 15.9214 54.3013 16.3283 54.7675C16.9569 55.4881 17.7326 56.0657 18.6031 56.4615C19.4737 56.8573 20.4189 57.0621 21.3752 57.0621C22.3314 57.0621 23.2766 56.8573 24.1472 56.4615C25.0177 56.0657 25.7934 55.4881 26.422 54.7675C26.8289 54.3013 27.3308 53.9277 27.8941 53.6716C28.4573 53.4156 29.0689 53.2831 29.6877 53.2831C30.3064 53.2831 30.918 53.4156 31.4812 53.6716C32.0445 53.9277 32.5464 54.3013 32.9533 54.7675C33.5819 55.4881 34.3576 56.0657 35.2281 56.4615C36.0987 56.8573 37.0439 57.0621 38.0001 57.0621C38.9564 57.0621 39.9016 56.8573 40.7722 56.4615C41.6427 56.0657 42.4184 55.4881 43.047 54.7675C43.4539 54.3013 43.9558 53.9277 44.5191 53.6716C45.0824 53.4156 45.6939 53.2831 46.3126 53.2831C46.9314 53.2831 47.5429 53.4156 48.1062 53.6716C48.6695 53.9277 49.1714 54.3013 49.5783 54.7675C50.2069 55.4881 50.9826 56.0657 51.8531 56.4615C52.7237 56.8573 53.6689 57.0621 54.6251 57.0621C55.5814 57.0621 56.5266 56.8573 57.3972 56.4615C58.2677 56.0657 59.0434 55.4881 59.672 54.7675C60.0789 54.3013 60.5808 53.9277 61.1441 53.6716C61.7074 53.4156 62.3189 53.2831 62.9376 53.2831C63.5564 53.2831 64.1679 53.4156 64.7312 53.6716C65.2945 53.9277 65.7964 54.3013 66.2033 54.7675C66.9928 55.6724 68.0118 56.3475 69.153 56.7216C70.2941 57.0957 71.515 57.1549 72.687 56.8931C73.002 56.827 73.2777 56.6384 73.4537 56.369C73.6296 56.0995 73.6913 55.7712 73.6252 55.4563C73.559 55.1413 73.3705 54.8655 73.101 54.6896C72.8315 54.5137 72.5032 54.452 72.1883 54.5181C71.4284 54.6833 70.6382 54.6427 69.8992 54.4006C69.1603 54.1584 68.4993 53.7235 67.9845 53.1406C67.5523 52.6524 67.0524 52.2286 66.5002 51.8819V29.6875C66.5002 29.0576 66.7504 28.4535 67.1958 28.0081C67.6412 27.5627 68.2453 27.3125 68.8752 27.3125C69.505 27.3125 70.1091 27.5627 70.5545 28.0081C70.9999 28.4535 71.2502 29.0576 71.2502 29.6875C71.2502 30.0024 71.3753 30.3045 71.598 30.5272C71.8207 30.7499 72.1227 30.875 72.4377 30.875C72.7526 30.875 73.0546 30.7499 73.2773 30.5272C73.5 30.3045 73.6252 30.0024 73.6252 29.6875C73.6252 28.4277 73.1247 27.2195 72.2339 26.3287C71.3431 25.4379 70.1349 24.9375 68.8752 24.9375C67.6154 24.9375 66.4072 25.4379 65.5164 26.3287C64.6256 27.2195 64.1251 28.4277 64.1251 29.6875V33.25H49.8751V29.6875C49.8751 29.0576 50.1254 28.4535 50.5708 28.0081C51.0162 27.5627 51.6203 27.3125 52.2501 27.3125C52.88 27.3125 53.4841 27.5627 53.9295 28.0081C54.3749 28.4535 54.6251 29.0576 54.6251 29.6875C54.6251 30.0024 54.7503 30.3045 54.973 30.5272C55.1957 30.7499 55.4977 30.875 55.8126 30.875C56.1276 30.875 56.4296 30.7499 56.6523 30.5272C56.875 30.3045 57.0001 30.0024 57.0001 29.6875C57.0001 28.4277 56.4997 27.2195 55.6089 26.3287C54.7181 25.4379 53.5099 24.9375 52.2501 24.9375C50.9904 24.9375 49.7822 25.4379 48.8914 26.3287C48.0006 27.2195 47.5001 28.4277 47.5001 29.6875V50.9675C47.1087 50.8921 46.7113 50.8524 46.3126 50.8487C45.3568 50.8499 44.4122 51.055 43.542 51.4502C42.6717 51.8454 41.8957 52.4217 41.2658 53.1406ZM49.8751 45.125H64.1251V47.5H49.8751V45.125ZM64.1251 35.625V38H53.4376C53.1227 38 52.8207 38.1251 52.598 38.3478C52.3753 38.5705 52.2501 38.8726 52.2501 39.1875C52.2501 39.5024 52.3753 39.8045 52.598 40.0272C52.8207 40.2499 53.1227 40.375 53.4376 40.375H64.1251V42.75H49.8751V35.625H64.1251ZM49.8751 49.875H64.1251V50.9675C63.7337 50.8921 63.3363 50.8524 62.9376 50.8487C61.9818 50.8499 61.0372 51.055 60.167 51.4502C59.2967 51.8454 58.5207 52.4217 57.8908 53.1406C57.4839 53.6068 56.982 53.9805 56.4187 54.2365C55.8554 54.4925 55.2439 54.625 54.6251 54.625C54.0064 54.625 53.3949 54.4925 52.8316 54.2365C52.2683 53.9805 51.7664 53.6068 51.3595 53.1406C50.9273 52.6524 50.4274 52.2286 49.8751 51.8819V49.875Z" fill="#ED1260"/>
<path d="M41.2658 53.1406C40.8589 53.6068 40.357 53.9805 39.7937 54.2365C39.2304 54.4925 38.6189 54.625 38.0001 54.625C37.3814 54.625 36.7698 54.4925 36.2066 54.2365C35.6433 53.9805 35.1414 53.6068 34.7345 53.1406C34.1059 52.42 33.3302 51.8424 32.4597 51.4466C31.5891 51.0508 30.6439 50.846 29.6877 50.846C28.7314 50.846 27.7862 51.0508 26.9156 51.4466C26.0451 51.8424 25.2694 52.42 24.6408 53.1406C24.2339 53.6068 23.732 53.9805 23.1687 54.2365C22.6055 54.4925 21.9939 54.625 21.3752 54.625C20.7564 54.625 20.1448 54.4925 19.5816 54.2365C19.0183 53.9805 18.5164 53.6068 18.1095 53.1406C17.4809 52.42 16.7052 51.8424 15.8347 51.4466C14.9641 51.0508 14.0189 50.846 13.0626 50.846C12.1064 50.846 11.1612 51.0508 10.2906 51.4466C9.42011 51.8424 8.64443 52.42 8.01577 53.1406C7.50101 53.7235 6.84004 54.1584 6.10108 54.4006C5.36211 54.6427 4.57191 54.6833 3.81202 54.5181C3.65608 54.4854 3.49521 54.4837 3.33861 54.5131C3.182 54.5425 3.03272 54.6025 2.8993 54.6896C2.62983 54.8655 2.44129 55.1413 2.37515 55.4563C2.30901 55.7712 2.37069 56.0995 2.54663 56.369C2.72256 56.6384 2.99833 56.827 3.31327 56.8931C4.48528 57.1549 5.70621 57.0957 6.84734 56.7216C7.98847 56.3475 9.00751 55.6724 9.79702 54.7675C10.2039 54.3013 10.7058 53.9277 11.2691 53.6716C11.8323 53.4156 12.4439 53.2831 13.0626 53.2831C13.6814 53.2831 14.293 53.4156 14.8562 53.6716C15.4195 53.9277 15.9214 54.3013 16.3283 54.7675C16.9569 55.4881 17.7326 56.0657 18.6031 56.4615C19.4737 56.8573 20.4189 57.0621 21.3752 57.0621C22.3314 57.0621 23.2766 56.8573 24.1472 56.4615C25.0177 56.0657 25.7934 55.4881 26.422 54.7675C26.8289 54.3013 27.3308 53.9277 27.8941 53.6716C28.4573 53.4156 29.0689 53.2831 29.6877 53.2831C30.3064 53.2831 30.918 53.4156 31.4812 53.6716C32.0445 53.9277 32.5464 54.3013 32.9533 54.7675C33.5819 55.4881 34.3576 56.0657 35.2281 56.4615C36.0987 56.8573 37.0439 57.0621 38.0001 57.0621C38.9564 57.0621 39.9016 56.8573 40.7722 56.4615C41.6427 56.0657 42.4184 55.4881 43.047 54.7675C43.4539 54.3013 43.9558 53.9277 44.5191 53.6716C45.0824 53.4156 45.6939 53.2831 46.3126 53.2831C46.9314 53.2831 47.5429 53.4156 48.1062 53.6716C48.6695 53.9277 49.1714 54.3013 49.5783 54.7675C50.2069 55.4881 50.9826 56.0657 51.8531 56.4615C52.7237 56.8573 53.6689 57.0621 54.6251 57.0621C55.5814 57.0621 56.5266 56.8573 57.3972 56.4615C58.2677 56.0657 59.0434 55.4881 59.672 54.7675C60.0789 54.3013 60.5808 53.9277 61.1441 53.6716C61.7074 53.4156 62.3189 53.2831 62.9376 53.2831C63.5564 53.2831 64.1679 53.4156 64.7312 53.6716C65.2945 53.9277 65.7964 54.3013 66.2033 54.7675C66.9928 55.6724 68.0118 56.3475 69.153 56.7216C70.2941 57.0957 71.515 57.1549 72.687 56.8931C73.002 56.827 73.2777 56.6384 73.4537 56.369C73.6296 56.0995 73.6913 55.7712 73.6252 55.4563C73.559 55.1413 73.3705 54.8655 73.101 54.6896C72.8315 54.5137 72.5032 54.452 72.1883 54.5181C71.4284 54.6833 70.6382 54.6427 69.8992 54.4006C69.1603 54.1584 68.4993 53.7235 67.9845 53.1406C67.5523 52.6524 67.0524 52.2286 66.5002 51.8819V29.6875C66.5002 29.0576 66.7504 28.4535 67.1958 28.0081C67.6412 27.5627 68.2453 27.3125 68.8752 27.3125C69.505 27.3125 70.1091 27.5627 70.5545 28.0081C70.9999 28.4535 71.2502 29.0576 71.2502 29.6875C71.2502 30.0024 71.3753 30.3045 71.598 30.5272C71.8207 30.7499 72.1227 30.875 72.4377 30.875C72.7526 30.875 73.0546 30.7499 73.2773 30.5272C73.5 30.3045 73.6252 30.0024 73.6252 29.6875C73.6252 28.4277 73.1247 27.2195 72.2339 26.3287C71.3431 25.4379 70.1349 24.9375 68.8752 24.9375C67.6154 24.9375 66.4072 25.4379 65.5164 26.3287C64.6256 27.2195 64.1251 28.4277 64.1251 29.6875V33.25H49.8751V29.6875C49.8751 29.0576 50.1254 28.4535 50.5708 28.0081C51.0162 27.5627 51.6203 27.3125 52.2501 27.3125C52.88 27.3125 53.4841 27.5627 53.9295 28.0081C54.3749 28.4535 54.6251 29.0576 54.6251 29.6875C54.6251 30.0024 54.7503 30.3045 54.973 30.5272C55.1957 30.7499 55.4977 30.875 55.8126 30.875C56.1276 30.875 56.4296 30.7499 56.6523 30.5272C56.875 30.3045 57.0001 30.0024 57.0001 29.6875C57.0001 28.4277 56.4997 27.2195 55.6089 26.3287C54.7181 25.4379 53.5099 24.9375 52.2501 24.9375C50.9904 24.9375 49.7822 25.4379 48.8914 26.3287C48.0006 27.2195 47.5001 28.4277 47.5001 29.6875V50.9675C47.1087 50.8921 46.7113 50.8524 46.3126 50.8487C45.3568 50.8499 44.4122 51.055 43.542 51.4502C42.6717 51.8454 41.8957 52.4217 41.2658 53.1406ZM49.8751 45.125H64.1251V47.5H49.8751V45.125ZM64.1251 35.625V38H53.4376C53.1227 38 52.8207 38.1251 52.598 38.3478C52.3753 38.5705 52.2501 38.8726 52.2501 39.1875C52.2501 39.5024 52.3753 39.8045 52.598 40.0272C52.8207 40.2499 53.1227 40.375 53.4376 40.375H64.1251V42.75H49.8751V35.625H64.1251ZM49.8751 49.875H64.1251V50.9675C63.7337 50.8921 63.3363 50.8524 62.9376 50.8487C61.9818 50.8499 61.0372 51.055 60.167 51.4502C59.2967 51.8454 58.5207 52.4217 57.8908 53.1406C57.4839 53.6068 56.982 53.9805 56.4187 54.2365C55.8554 54.4925 55.2439 54.625 54.6251 54.625C54.0064 54.625 53.3949 54.4925 52.8316 54.2365C52.2683 53.9805 51.7664 53.6068 51.3595 53.1406C50.9273 52.6524 50.4274 52.2286 49.8751 51.8819V49.875Z" stroke="#ED1260" stroke-width="0.2" mask="url(#path-1-outside-1)"/>
<path d="M70.3992 61.422L70.3977 61.4203C69.7644 60.6943 68.9829 60.1124 68.1059 59.7136C67.2288 59.3149 66.2766 59.1086 65.3132 59.1086C64.3497 59.1086 63.3975 59.3149 62.5205 59.7136C61.6434 60.1124 60.862 60.6943 60.2286 61.4203C59.8265 61.8811 59.3303 62.2504 58.7735 62.5035C58.2168 62.7566 57.6123 62.8875 57.0007 62.8875C56.3891 62.8875 55.7846 62.7566 55.2278 62.5035C54.671 62.2504 54.1749 61.8811 53.7727 61.4203C53.1394 60.6943 52.3579 60.1124 51.4809 59.7136C50.6038 59.3149 49.6516 59.1086 48.6882 59.1086C47.7247 59.1086 46.7725 59.3149 45.8955 59.7136C45.0184 60.1124 44.237 60.6943 43.6036 61.4203C43.2015 61.8811 42.7053 62.2504 42.1486 62.5035C41.5918 62.7566 40.9873 62.8875 40.3757 62.8875C39.7641 62.8875 39.1596 62.7566 38.6028 62.5035C38.046 62.2504 37.5499 61.8811 37.1477 61.4203C36.5144 60.6943 35.7329 60.1124 34.8559 59.7136C33.9788 59.3149 33.0266 59.1086 32.0632 59.1086C31.0997 59.1086 30.1475 59.3149 29.2705 59.7136C28.3934 60.1124 27.612 60.6943 26.9786 61.4203C26.5765 61.8811 26.0803 62.2504 25.5236 62.5035C24.9668 62.7566 24.3623 62.8875 23.7507 62.8875C23.1391 62.8875 22.5346 62.7566 21.9778 62.5035C21.421 62.2504 20.9249 61.8811 20.5227 61.4203C19.8894 60.6943 19.1079 60.1124 18.2309 59.7136C17.3538 59.3149 16.4016 59.1086 15.4382 59.1086C14.4747 59.1086 13.5225 59.3149 12.6455 59.7136C11.7685 60.1124 10.9871 60.6942 10.3537 61.4202C9.61006 62.2605 8.56637 62.7755 7.447 62.8545C6.32761 62.9336 5.2219 62.5702 4.36754 61.8427C4.24404 61.737 4.10093 61.6568 3.9464 61.6064C3.79187 61.5561 3.62894 61.5367 3.46692 61.5494C3.30489 61.562 3.14694 61.6064 3.00208 61.6801C2.85723 61.7538 2.7283 61.8553 2.62267 61.9788C2.51704 62.1023 2.43677 62.2454 2.38644 62.3999C2.33612 62.5545 2.31672 62.7174 2.32936 62.8794C2.342 63.0414 2.38643 63.1994 2.46011 63.3443C2.5338 63.4891 2.63529 63.618 2.7588 63.7237L2.75886 63.7237C4.10757 64.8733 5.85377 65.4472 7.62147 65.3219C9.38917 65.1966 11.037 64.3821 12.21 63.0538L12.2102 63.0535C12.6124 62.5928 13.1085 62.2234 13.6653 61.9703C14.2221 61.7172 14.8266 61.5863 15.4382 61.5863C16.0498 61.5863 16.6543 61.7172 17.2111 61.9703C17.7678 62.2234 18.264 62.5928 18.6661 63.0535C19.2995 63.7795 20.0809 64.3615 20.958 64.7602C21.835 65.159 22.7872 65.3653 23.7507 65.3653C24.7141 65.3653 25.6663 65.159 26.5434 64.7602C27.4204 64.3615 28.2019 63.7795 28.8352 63.0535C29.2374 62.5928 29.7335 62.2234 30.2903 61.9703C30.8471 61.7172 31.4516 61.5863 32.0632 61.5863C32.6748 61.5863 33.2793 61.7172 33.8361 61.9703C34.3928 62.2234 34.889 62.5928 35.2911 63.0535C35.9245 63.7795 36.7059 64.3615 37.583 64.7602C38.46 65.159 39.4122 65.3653 40.3757 65.3653C41.3391 65.3653 42.2913 65.159 43.1684 64.7602C44.0454 64.3615 44.8269 63.7795 45.4602 63.0535C45.8624 62.5928 46.3585 62.2234 46.9153 61.9703C47.4721 61.7172 48.0766 61.5863 48.6882 61.5863C49.2998 61.5863 49.9043 61.7172 50.461 61.9703C51.0178 62.2234 51.514 62.5928 51.9161 63.0535C52.5495 63.7795 53.3309 64.3615 54.208 64.7602C55.085 65.159 56.0372 65.3653 57.0007 65.3653C57.9641 65.3653 58.9163 65.159 59.7934 64.7602C60.6704 64.3615 61.4519 63.7795 62.0852 63.0535C62.4874 62.5928 62.9835 62.2234 63.5403 61.9703C64.0971 61.7172 64.7016 61.5863 65.3132 61.5863C65.9248 61.5863 66.5293 61.7172 67.086 61.9703C67.6427 62.2233 68.1387 62.5926 68.5408 63.0532C69.0262 63.6339 69.6555 64.0771 70.3658 64.3384C71.0759 64.5997 71.8421 64.6701 72.5879 64.5427C72.9155 64.503 73.214 64.335 73.4179 64.0755C73.6221 63.8156 73.7147 63.4853 73.6753 63.1572C73.6359 62.8291 73.4678 62.5301 73.208 62.3259C72.9481 62.1217 72.6178 62.0292 72.2897 62.0685L72.2457 62.0738V62.0898C71.9131 62.1588 71.5677 62.1361 71.2467 62.0238C70.9131 61.9072 70.6193 61.6985 70.3992 61.422Z" fill="#ED1260" stroke="#ED1260" stroke-width="0.1"/>
<path d="M2.32645 72.035L2.32644 72.0351C2.29194 72.1944 2.28923 72.3589 2.31849 72.5192C2.34774 72.6796 2.40838 72.8325 2.49692 72.9694C2.58546 73.1062 2.70015 73.2242 2.83442 73.3166C2.96861 73.4089 3.11971 73.4738 3.27905 73.5076C4.45975 73.7714 5.68973 73.7116 6.83933 73.3347C7.98901 72.9578 9.01568 72.2777 9.81111 71.366C10.2133 70.9052 10.7094 70.5359 11.2662 70.2828C11.823 70.0297 12.4275 69.8988 13.0391 69.8988C13.6507 69.8988 14.2552 70.0297 14.8119 70.2828C15.3687 70.5359 15.8649 70.9052 16.267 71.366C16.9004 72.092 17.6818 72.674 18.5589 73.0727C19.4359 73.4714 20.3881 73.6778 21.3516 73.6778C22.315 73.6778 23.2672 73.4714 24.1443 73.0727C25.0213 72.674 25.8028 72.092 26.4361 71.366C26.8383 70.9052 27.3344 70.5359 27.8912 70.2828C28.448 70.0297 29.0525 69.8988 29.6641 69.8988C30.2757 69.8988 30.8802 70.0297 31.4369 70.2828C31.9937 70.5359 32.4899 70.9052 32.892 71.366C33.5254 72.092 34.3068 72.674 35.1839 73.0727C36.0609 73.4714 37.0131 73.6778 37.9766 73.6778C38.94 73.6778 39.8922 73.4714 40.7693 73.0727C41.6463 72.674 42.4278 72.092 43.0611 71.366C43.4632 70.9052 43.9594 70.5359 44.5162 70.2828C45.0729 70.0297 45.6775 69.8988 46.2891 69.8988C46.9007 69.8988 47.5052 70.0297 48.0619 70.2828C48.6187 70.5359 49.1149 70.9052 49.517 71.366C50.1503 72.092 50.9318 72.674 51.8088 73.0727C52.6859 73.4714 53.6381 73.6778 54.6016 73.6778C55.565 73.6778 56.5172 73.4714 57.3943 73.0727C58.2713 72.674 59.0528 72.092 59.6861 71.366C60.0882 70.9052 60.5844 70.5359 61.1412 70.2828C61.6979 70.0297 62.3025 69.8988 62.9141 69.8988C63.5257 69.8988 64.1302 70.0297 64.6869 70.2828C65.2437 70.5359 65.7399 70.9052 66.142 71.366C66.9374 72.2777 67.9641 72.9578 69.1138 73.3347C70.2634 73.7116 71.4933 73.7714 72.674 73.5077C72.8363 73.4735 72.9902 73.4078 73.1271 73.3142C73.2641 73.2206 73.3812 73.1009 73.4719 72.962C73.5626 72.8231 73.6251 72.6676 73.6557 72.5046C73.6864 72.3415 73.6846 72.174 73.6505 72.0116C73.6164 71.8493 73.5506 71.6952 73.457 71.5582C73.3634 71.4213 73.2437 71.3041 73.1047 71.2134C72.9658 71.1227 72.8104 71.0602 72.6473 71.0296C72.4843 70.999 72.3168 71.0008 72.1544 71.0349L72.0961 71.0471L72.1183 71.1024L72.1199 71.1065C71.3865 71.2554 70.6267 71.2113 69.9149 70.9781C69.1844 70.7387 68.531 70.3088 68.0222 69.7326C67.3888 69.0067 66.6074 68.4248 65.7305 68.0261C64.8535 67.6274 63.9012 67.4211 62.9378 67.4211C61.9744 67.4211 61.0221 67.6274 60.1451 68.0261C59.2681 68.4249 58.4866 69.0068 57.8533 69.7328C57.4511 70.1936 56.955 70.5629 56.3982 70.816C55.8414 71.0691 55.2369 71.2 54.6253 71.2C54.0137 71.2 53.4092 71.0691 52.8524 70.816C52.2956 70.5629 51.7995 70.1936 51.3974 69.7328C50.764 69.0068 49.9825 68.4249 49.1055 68.0261C48.2285 67.6274 47.2762 67.4211 46.3128 67.4211C45.3494 67.4211 44.3971 67.6274 43.5201 68.0261C42.6431 68.4249 41.8616 69.0068 41.2283 69.7328C40.8261 70.1936 40.33 70.5629 39.7732 70.816C39.2164 71.0691 38.6119 71.2 38.0003 71.2C37.3887 71.2 36.7842 71.0691 36.2274 70.816C35.6706 70.5629 35.1745 70.1936 34.7724 69.7328C34.139 69.0068 33.3575 68.4249 32.4805 68.0261C31.6035 67.6274 30.6512 67.4211 29.6878 67.4211C28.7244 67.4211 27.7721 67.6274 26.8951 68.0261C26.0181 68.4249 25.2366 69.0068 24.6033 69.7328C24.2011 70.1936 23.705 70.5629 23.1482 70.816C22.5914 71.0691 21.9869 71.2 21.3753 71.2C20.7637 71.2 20.1592 71.0691 19.6024 70.816C19.0456 70.5629 18.5495 70.1936 18.1474 69.7328C17.514 69.0068 16.7325 68.4249 15.8555 68.0261C14.9785 67.6274 14.0262 67.4211 13.0628 67.4211C12.0994 67.4211 11.1471 67.6274 10.2701 68.0261C9.39312 68.4249 8.61169 69.0068 7.97836 69.7327C7.4695 70.3088 6.81613 70.7388 6.08567 70.9781C5.35532 71.2174 4.57435 71.2576 3.82331 71.0944C3.66332 71.0562 3.4973 71.0502 3.33497 71.0769C3.17247 71.1036 3.01693 71.1625 2.87748 71.2501C2.73802 71.3377 2.61745 71.4522 2.52283 71.587C2.42821 71.7218 2.36145 71.8741 2.32645 72.035Z" fill="#ED1260" stroke="#ED1260" stroke-width="0.1"/>
<path d="M72.4375 42.7H70.0625C69.7343 42.7 69.4195 42.8304 69.1875 43.0625C68.9554 43.2945 68.825 43.6093 68.825 43.9375C68.825 44.2657 68.9554 44.5805 69.1875 44.8125C69.4195 45.0446 69.7343 45.175 70.0625 45.175H72.4375C72.7657 45.175 73.0805 45.0446 73.3125 44.8125C73.5446 44.5805 73.675 44.2657 73.675 43.9375C73.675 43.6093 73.5446 43.2945 73.3125 43.0625C73.0805 42.8304 72.7657 42.7 72.4375 42.7Z" fill="#ED1260" stroke="#ED1260" stroke-width="0.1"/>
<path d="M3.5625 45.175H43.9375C44.2657 45.175 44.5805 45.0446 44.8125 44.8125C45.0446 44.5805 45.175 44.2657 45.175 43.9375C45.175 43.6093 45.0446 43.2945 44.8125 43.0625C44.5805 42.8304 44.2657 42.7 43.9375 42.7H3.5625C3.23429 42.7 2.91953 42.8304 2.68746 43.0625C2.45538 43.2945 2.325 43.6093 2.325 43.9375C2.325 44.2657 2.45538 44.5805 2.68746 44.8125C2.91953 45.0446 3.23429 45.175 3.5625 45.175Z" fill="#ED1260" stroke="#ED1260" stroke-width="0.1"/>
</svg>
