<svg width="65" height="63" viewBox="0 0 65 63" fill="none" xmlns="http://www.w3.org/2000/svg">
<path d="M63.7083 59.9589H59.629L58.1865 57.3997C61.9901 57.1198 64.9999 53.9378 64.9999 50.0639C64.9999 49.5544 64.9477 49.057 64.8487 48.5764L59.6676 16.792H63.6005C64.3011 16.792 64.8691 16.224 64.8691 15.5233C64.8691 14.8227 64.3011 14.2547 63.6005 14.2547H59.2541L58.2142 7.8754L58.7298 7.35984C60.2961 5.79349 60.2961 3.24478 58.7298 1.67843C57.1633 0.112074 54.6147 0.112074 53.0484 1.67843L45.8977 8.82907C44.3314 10.3954 44.3314 12.9441 45.8977 14.5105C46.681 15.2937 47.7097 15.6852 48.7384 15.6852C49.7671 15.6852 50.7958 15.2937 51.5791 14.5105L51.9208 14.1689L52.0947 15.2359L47.988 19.3426H42.3953C41.6947 19.3426 41.1267 19.9106 41.1267 20.6112C41.1267 21.3119 41.6947 21.8799 42.3953 21.8799H48.5135C48.8499 21.8799 49.1726 21.7462 49.4105 21.5083L52.5975 18.3212L56.5722 42.7058H7.35834C3.30117 42.7058 0.00038086 46.0066 0.00038086 50.0638C0.00038086 53.9851 3.0837 57.1989 6.95336 57.4101L5.51689 59.9586H1.26865C0.567989 59.9586 0 60.5266 0 61.2273C0 61.928 0.567989 62.4959 1.26865 62.4959H6.25817H20.2076H44.9387H58.8881H63.7086C64.4093 62.4959 64.9773 61.928 64.9773 61.2273C64.9771 60.5268 64.4089 59.9589 63.7083 59.9589ZM51.8776 10.6241C51.8775 10.6242 51.8773 10.6244 51.8771 10.6246L49.7851 12.7165C49.208 13.2938 48.2691 13.2938 47.6921 12.7165C47.1149 12.1394 47.1149 11.2006 47.6921 10.6234L54.8427 3.47278C55.1312 3.18422 55.5102 3.03987 55.8893 3.03987C56.2684 3.03987 56.6474 3.18409 56.9359 3.47278C57.5131 4.04991 57.5131 4.98873 56.9359 5.56586L55.9613 6.54049C55.9612 6.54061 55.961 6.54074 55.9608 6.54087L51.8776 10.6241ZM54.1313 11.9586L56.0038 10.086L56.6834 14.2548H54.5054L54.1313 11.9586ZM54.9191 16.7921H57.0972L61.4999 43.8018C60.7931 43.3647 60.0074 43.0441 59.1694 42.8664L54.9191 16.7921ZM8.42932 59.9589L9.8592 57.422H16.6063L18.0361 59.9589H8.42932ZM44.1973 59.9589H20.9486L19.5187 57.422H45.6272L44.1973 59.9589ZM47.1097 59.9589L48.5396 57.422H55.2867L56.7165 59.9589H47.1097ZM7.35834 54.8847C4.70019 54.8848 2.53754 52.7222 2.53754 50.0639C2.53754 47.4058 4.70019 45.2431 7.35834 45.2431H57.642C60.3002 45.2431 62.4628 47.4058 62.4628 50.0639C62.4628 52.7221 60.3002 54.8847 57.642 54.8847H7.35834Z" fill="#ED1260"/>
</svg>
